<svg width="17" height="14" viewBox="0 0 17 14" fill="none" xmlns="http://www.w3.org/2000/svg">
<mask id="path-1-inside-1_6139_287" fill="white">
<path fill-rule="evenodd" clip-rule="evenodd" d="M2.93192 6.71003C1.52445 6.28312 0.5 4.97548 0.5 3.42857C0.5 1.53502 2.03502 0 3.92857 0C5.47548 0 6.78312 1.02445 7.21003 2.43192C7.62459 2.33626 8.05639 2.28571 8.5 2.28571C8.94361 2.28571 9.37541 2.33626 9.78997 2.43192C10.2169 1.02445 11.5245 0 13.0714 0C14.965 0 16.5 1.53502 16.5 3.42857C16.5 4.97548 15.4755 6.28312 14.0681 6.71003C14.1637 7.12459 14.2143 7.55639 14.2143 8C14.2143 11.1559 11.6559 13.7143 8.5 13.7143C5.34409 13.7143 2.78571 11.1559 2.78571 8C2.78571 7.55639 2.83626 7.12459 2.93192 6.71003Z"/>
</mask>
<path d="M2.93192 6.71003L4.39351 7.04728L4.70866 5.68148L3.36732 5.27462L2.93192 6.71003ZM7.21003 2.43192L5.77462 2.86732L6.18148 4.20866L7.54728 3.89351L7.21003 2.43192ZM9.78997 2.43192L9.45272 3.89351L10.8185 4.20866L11.2254 2.86732L9.78997 2.43192ZM14.0681 6.71003L13.6327 5.27462L12.2913 5.68148L12.6065 7.04728L14.0681 6.71003ZM3.36732 5.27462C2.57445 5.03412 2 4.29647 2 3.42857H-1C-1 5.65449 0.474454 7.53211 2.49652 8.14545L3.36732 5.27462ZM2 3.42857C2 2.36345 2.86345 1.5 3.92857 1.5V-1.5C1.2066 -1.5 -1 0.706597 -1 3.42857H2ZM3.92857 1.5C4.79647 1.5 5.53412 2.07445 5.77462 2.86732L8.64545 1.99652C8.03211 -0.025546 6.15449 -1.5 3.92857 -1.5V1.5ZM8.5 0.785714C7.94209 0.785714 7.39716 0.849326 6.87279 0.970321L7.54728 3.89351C7.85201 3.8232 8.17069 3.78571 8.5 3.78571V0.785714ZM10.1272 0.970321C9.60284 0.849326 9.05791 0.785714 8.5 0.785714V3.78571C8.82931 3.78571 9.14799 3.8232 9.45272 3.89351L10.1272 0.970321ZM13.0714 -1.5C10.8455 -1.5 8.96789 -0.0255465 8.35455 1.99652L11.2254 2.86732C11.4659 2.07445 12.2035 1.5 13.0714 1.5V-1.5ZM18 3.42857C18 0.706597 15.7934 -1.5 13.0714 -1.5V1.5C14.1365 1.5 15 2.36345 15 3.42857H18ZM14.5035 8.14545C16.5255 7.53211 18 5.65449 18 3.42857H15C15 4.29647 14.4255 5.03412 13.6327 5.27462L14.5035 8.14545ZM15.7143 8C15.7143 7.44209 15.6507 6.89716 15.5297 6.37279L12.6065 7.04728C12.6768 7.35201 12.7143 7.67069 12.7143 8H15.7143ZM8.5 15.2143C12.4843 15.2143 15.7143 11.9843 15.7143 8H12.7143C12.7143 10.3275 10.8275 12.2143 8.5 12.2143V15.2143ZM1.28571 8C1.28571 11.9843 4.51566 15.2143 8.5 15.2143V12.2143C6.17251 12.2143 4.28571 10.3275 4.28571 8H1.28571ZM1.47032 6.37279C1.34933 6.89716 1.28571 7.44209 1.28571 8H4.28571C4.28571 7.67069 4.3232 7.35201 4.39351 7.04728L1.47032 6.37279Z" fill="#BB3C40" mask="url(#path-1-inside-1_6139_287)"/>
</svg>
